<?xml version="1.0" encoding="utf-8" ?><svg xmlns="http://www.w3.org/2000/svg" xmlns:xlink="http://www.w3.org/1999/xlink" width="18" height="18"><path fill="#757575" transform="matrix(1 0 0 1 2.25 2.25)" d="M13.5 6.75Q13.5 3.9541 11.523 1.977Q9.5459 0 6.75 0Q3.9541 0 1.977 1.977Q0 3.9541 0 6.75Q0 9.5459 1.977 11.523Q3.9541 13.5 6.75 13.5Q9.5459 13.5 11.523 11.523Q13.5 9.5459 13.5 6.75ZM2.9316 2.9316Q4.5132 1.35 6.75 1.35Q8.9868 1.35 10.5684 2.9316Q12.15 4.5132 12.15 6.75Q12.15 8.9868 10.5684 10.5684Q8.9868 12.15 6.75 12.15Q4.5132 12.15 2.9316 10.5684Q1.35 8.9868 1.35 6.75Q1.35 4.5132 2.9316 2.9316Z" fill-rule="evenodd"/><path fill="#757575" transform="matrix(1 0 0 1 5.25 5.25)" d="M4.425 1.5L4.425 0Q4.4331 -0.283 4.2273 -0.4773Q4.033 -0.6831 3.75 -0.675Q3.467 -0.6831 3.2727 -0.4773Q3.0669 -0.283 3.075 0L3.075 1.5Q3.0669 1.783 3.2727 1.9773Q3.467 2.1831 3.75 2.175Q4.033 2.1831 4.2273 1.9773Q4.4331 1.783 4.425 1.5ZM1.5 3.075L0 3.075Q-0.283 3.0669 -0.4773 3.2727Q-0.6831 3.467 -0.675 3.75Q-0.6831 4.033 -0.4773 4.2273Q-0.283 4.4331 0 4.425L1.5 4.425Q1.783 4.4331 1.9773 4.2273Q2.1831 4.033 2.175 3.75Q2.1831 3.467 1.9773 3.2727Q1.783 3.0669 1.5 3.075ZM7.5 3.075L6 3.075Q5.717 3.0669 5.5227 3.2727Q5.3169 3.467 5.325 3.75Q5.3169 4.033 5.5227 4.2273Q5.717 4.4331 6 4.425L7.5 4.425Q7.783 4.4331 7.9773 4.2273Q8.1831 4.033 8.175 3.75Q8.1831 3.467 7.9773 3.2727Q7.783 3.0669 7.5 3.075ZM4.425 7.5L4.425 6Q4.4331 5.717 4.2273 5.5227Q4.033 5.3169 3.75 5.325Q3.467 5.3169 3.2727 5.5227Q3.0669 5.717 3.075 6L3.075 7.5Q3.0669 7.783 3.2727 7.9773Q3.467 8.1831 3.75 8.175Q4.033 8.1831 4.2273 7.9773Q4.4331 7.783 4.425 7.5Z" fill-rule="evenodd"/><path fill="#757575" transform="matrix(1 0 0 1 7.125 7.125)" d="M2.8296 1.875L4.2273 0.4773Q4.4331 0.283 4.425 0Q4.4331 -0.283 4.2273 -0.4773Q4.033 -0.6831 3.75 -0.675Q3.467 -0.6831 3.2727 -0.4773L1.875 0.9204L0.4773 -0.4773Q0.283 -0.6831 0 -0.675Q-0.283 -0.6831 -0.4773 -0.4773Q-0.6831 -0.283 -0.675 0Q-0.6831 0.283 -0.4773 0.4773L0.9204 1.875L-0.4773 3.2727Q-0.6831 3.467 -0.675 3.75Q-0.6831 4.033 -0.4773 4.2273Q-0.283 4.4331 0 4.425Q0.283 4.4331 0.4773 4.2273L1.875 2.8296L3.2727 4.2273Q3.467 4.4331 3.75 4.425Q4.033 4.4331 4.2273 4.2273Q4.4331 4.033 4.425 3.75Q4.4331 3.467 4.2273 3.2727L2.8296 1.875Z" fill-rule="evenodd"/></svg>