<?xml version="1.0" encoding="utf-8" ?><svg xmlns="http://www.w3.org/2000/svg" xmlns:xlink="http://www.w3.org/1999/xlink" width="200" height="200"><path fill="#E8EBED" transform="matrix(1 0 0 1 5 5)" d="M190 95Q190 55.6497 162.1751 27.8249Q134.3503 0 95 0Q55.6497 0 27.8249 27.8249Q0 55.6497 0 95Q0 134.3503 27.8249 162.1751Q55.6497 190 95 190Q134.3503 190 162.1751 162.1751Q190 134.3503 190 95ZM63.7119 15.968Q78.7868 10 95 10Q111.2132 10 126.288 15.968Q142.6561 22.4479 155.1041 34.8959Q167.552 47.3439 174.032 63.7119Q180 78.7868 180 95Q180 111.2132 174.032 126.288Q167.552 142.6561 155.1041 155.1041Q142.6561 167.552 126.288 174.032Q111.2132 180 95 180Q78.7868 180 63.7119 174.032Q47.3438 167.552 34.8959 155.1041Q22.4479 142.6561 15.968 126.288Q10 111.2132 10 95Q10 78.7868 15.968 63.7119Q22.448 47.3439 34.8959 34.8959Q47.3439 22.448 63.7119 15.968Z" fill-rule="evenodd"/><path fill="#8FA89B" transform="matrix(0 -1 1 0 5 195)" d="M11.5259 140.3549Q5.8531 129.9144 2.9265 118.3983Q0 106.8822 0 95Q0 83.1178 2.9265 71.6017Q5.8531 60.0856 11.5259 49.6451Q15.126 51.3623 16.556 55.0859Q17.986 58.8095 16.4607 62.495Q10 78.1055 10 95Q10 111.8945 16.4607 127.505Q17.2213 129.3429 17.2208 131.332Q17.2202 133.3212 16.4584 135.1586Q15.7489 136.87 14.4735 138.2137Q13.198 139.5574 11.5259 140.3549ZM140.3549 178.4741Q129.9144 184.1469 118.3983 187.0735Q106.8821 190 95 190Q83.1179 190 71.6017 187.0735Q60.0856 184.1469 49.6451 178.4741Q50.4427 176.802 51.7863 175.5265Q53.13 174.2511 54.8414 173.5416Q56.6788 172.7798 58.668 172.7793Q60.6571 172.7787 62.495 173.5393Q78.1054 180 95 180Q111.8945 180 127.505 173.5393Q131.1905 172.014 134.9141 173.444Q138.6377 174.874 140.3549 178.4741ZM178.4741 49.6451Q184.1469 60.0856 187.0735 71.6017Q190 83.1179 190 95Q190 106.8821 187.0735 118.3983Q184.1469 129.9144 178.4741 140.3549Q174.874 138.6377 173.444 134.9141Q172.014 131.1905 173.5393 127.505Q180 111.8945 180 95Q180 78.1055 173.5393 62.495Q172.014 58.8095 173.444 55.0859Q174.8739 51.3623 178.4741 49.6451ZM140.3549 11.5259Q139.5573 13.198 138.2137 14.4735Q136.87 15.7489 135.1586 16.4584Q133.3211 17.2202 131.332 17.2207Q129.3429 17.2213 127.505 16.4607Q111.8945 10 95 10Q78.1055 10 62.495 16.4607Q60.6571 17.2213 58.668 17.2208Q56.6788 17.2202 54.8414 16.4584Q53.13 15.749 51.7863 14.4735Q50.4426 13.198 49.6451 11.5259Q60.0856 5.8531 71.6017 2.9265Q83.1178 -0 95 0Q106.8822 0 118.3983 2.9265Q129.9144 5.8531 140.3549 11.5259Z" fill-rule="evenodd"/></svg>