<?xml version="1.0" encoding="utf-8" ?><svg xmlns="http://www.w3.org/2000/svg" xmlns:xlink="http://www.w3.org/1999/xlink" width="80" height="80"><rect fill="#8FA89B" width="80" height="80" rx="22" ry="22"/><path fill="#FFF" transform="matrix(1 0 0 1 25 26.6667)" d="M0.9571 0.5422Q-1.6667 2.9474 -1.6667 6.6667Q-1.6667 13.5562 6.2612 22.3649Q8.6671 25.0381 11.549 27.5999Q12.9961 28.8862 13.9768 29.6489L15 30.4448L16.0232 29.6489Q17.0039 28.8862 18.451 27.5999Q21.333 25.0381 23.7388 22.3649Q31.6667 13.5562 31.6667 6.6667Q31.6667 2.9474 29.0429 0.5422Q26.6332 -1.6667 23.3333 -1.6667Q21.0387 -1.6667 18.6057 -0.1694Q17.0021 0.8174 15 2.6823Q12.9979 0.8174 11.3943 -0.1694Q8.9613 -1.6667 6.6667 -1.6667Q3.3668 -1.6667 0.9571 0.5422ZM3.7964 13.4537Q1.6667 9.6676 1.6667 6.6667Q1.6667 4.4137 3.2095 2.9994Q4.6635 1.6667 6.6667 1.6667Q8.0178 1.6667 9.6473 2.6694Q11.3765 3.7335 13.8215 6.1785L15 7.357L16.1785 6.1785Q18.6235 3.7335 20.3527 2.6694Q21.9822 1.6667 23.3333 1.6667Q25.3365 1.6667 26.7905 2.9994Q28.3333 4.4137 28.3333 6.6667Q28.3333 9.6676 26.2036 13.4537Q24.419 16.6263 21.2612 20.1351Q18.9796 22.6702 16.2365 25.1085Q15.5605 25.7093 15 26.1832Q14.4395 25.7093 13.7635 25.1085Q11.0204 22.6702 8.7388 20.1351Q5.581 16.6263 3.7964 13.4537Z" fill-rule="evenodd"/></svg>