<?xml version="1.0" encoding="utf-8" ?><svg xmlns="http://www.w3.org/2000/svg" xmlns:xlink="http://www.w3.org/1999/xlink" width="88" height="88"><path fill="#E8EBED" transform="matrix(1 0 0 1 6 6)" d="M76 38Q76 22.2599 64.87 11.1299Q53.7401 0 38 0Q22.2599 0 11.1299 11.1299Q0 22.2599 0 38Q0 53.7401 11.1299 64.87Q22.2599 76 38 76Q53.7401 76 64.87 64.87Q76 53.7401 76 38ZM15.3726 15.3726Q24.7452 6 38 6Q51.2548 6 60.6274 15.3726Q70 24.7452 70 38Q70 51.2548 60.6274 60.6274Q51.2548 70 38 70Q24.7452 70 15.3726 60.6274Q6 51.2548 6 38Q6 24.7452 15.3726 15.3726Z" fill-rule="evenodd"/><path fill="#8FA89B" transform="matrix(0 -1 1 0 6 82)" d="M5.6133 57.8771Q2.8605 53.3919 1.4302 48.3273Q0 43.2627 0 38Q0 32.7373 1.4302 27.6727Q2.8605 22.6081 5.6133 18.1229Q6.5672 18.6091 7.294 19.3953Q8.0209 20.1816 8.4309 21.1706Q8.8879 22.2731 8.8883 23.4666Q8.8886 24.6601 8.4323 25.7628Q6 31.6397 6 38Q6 44.3603 8.4323 50.2372Q8.8887 51.3399 8.8883 52.5334Q8.8879 53.7269 8.4309 54.8294Q8.0209 55.8184 7.294 56.6047Q6.5672 57.3909 5.6133 57.8771ZM57.8771 70.3867Q53.3919 73.1395 48.3273 74.5698Q43.2627 76 38 76Q32.7373 76 27.6727 74.5698Q22.6081 73.1395 18.1229 70.3867Q18.6091 69.4328 19.3953 68.706Q20.1816 67.9791 21.1706 67.5691Q22.2731 67.1121 23.4666 67.1117Q24.6601 67.1114 25.7628 67.5677Q31.6397 70 38 70Q44.3603 70 50.2372 67.5677Q51.3399 67.1114 52.5334 67.1117Q53.7269 67.1121 54.8294 67.5691Q55.8185 67.9791 56.6047 68.706Q57.3909 69.4328 57.8771 70.3867ZM70.3867 18.1229Q73.1395 22.6081 74.5698 27.6727Q76 32.7373 76 38Q76 43.2627 74.5698 48.3273Q73.1395 53.3919 70.3867 57.8771Q69.4328 57.3909 68.706 56.6047Q67.9791 55.8184 67.5691 54.8294Q67.112 53.7269 67.1117 52.5334Q67.1114 51.3399 67.5677 50.2372Q70 44.3603 70 38Q70 31.6397 67.5677 25.7628Q67.1114 24.6601 67.1117 23.4666Q67.1121 22.2731 67.5691 21.1706Q67.9791 20.1815 68.706 19.3953Q69.4328 18.6091 70.3867 18.1229ZM57.8771 5.6133Q57.3909 6.5672 56.6047 7.294Q55.8184 8.0209 54.8294 8.4309Q53.7269 8.8879 52.5334 8.8883Q51.3399 8.8887 50.2372 8.4323Q44.3603 6 38 6Q31.6397 6 25.7628 8.4323Q23.5938 9.33 21.3914 8.5173Q19.189 7.7047 18.1229 5.6133Q22.6081 2.8605 27.6727 1.4302Q32.7373 -0 38 0Q43.2627 0 48.3273 1.4302Q53.3919 2.8605 57.8771 5.6133Z" fill-rule="evenodd"/></svg>