<?xml version="1.0" encoding="utf-8" ?><svg xmlns="http://www.w3.org/2000/svg" xmlns:xlink="http://www.w3.org/1999/xlink" width="24" height="24"><path fill="#8FA89B" transform="matrix(1 0 0 1 10 3)" d="M4 2Q4 1.1716 3.4142 0.5858Q2.8284 0 2 0Q1.1716 0 0.5858 0.5858Q0 1.1716 0 2Q0 2.8284 0.5858 3.4142Q1.1716 4 2 4Q2.8284 4 3.4142 3.4142Q4 2.8284 4 2ZM1.6464 1.6464Q1.7929 1.5 2 1.5Q2.5 1.5 2.5 2Q2.5 2.5 2 2.5Q1.7929 2.5 1.6464 2.3536Q1.5 2.2071 1.5 2Q1.5 1.7929 1.6464 1.6464Z" fill-rule="evenodd"/><path fill="#8FA89B" transform="matrix(1 0 0 1 9 7)" d="M3.75 5L3.75 0Q3.759 -0.3144 3.5303 -0.5303Q3.3144 -0.759 3 -0.75Q2.6856 -0.759 2.4697 -0.5303Q2.241 -0.3144 2.25 0L2.25 4.6893L-0.5303 7.4697Q-0.759 7.6856 -0.75 8Q-0.759 8.3144 -0.5303 8.5303Q-0.3144 8.759 0 8.75Q0.3144 8.759 0.5303 8.5303L3.75 5.3107L3.75 5Z" fill-rule="evenodd"/><path fill="#8FA89B" transform="matrix(1 0 0 1 12 12)" d="M3.5303 2.4697L0.5303 -0.5303Q0.3144 -0.759 0 -0.75Q-0.3144 -0.759 -0.5303 -0.5303Q-0.759 -0.3144 -0.75 0Q-0.759 0.3144 -0.5303 0.5303L2.4697 3.5303Q2.6856 3.759 3 3.75Q3.3144 3.759 3.5303 3.5303Q3.759 3.3144 3.75 3Q3.759 2.6856 3.5303 2.4697Z" fill-rule="evenodd"/></svg>