<?xml version="1.0" encoding="utf-8" ?><svg xmlns="http://www.w3.org/2000/svg" xmlns:xlink="http://www.w3.org/1999/xlink" width="24" height="24"><path fill="#E57373" transform="matrix(1 0 0 1 3 4)" d="M0.7432 0.5096Q-0.75 1.8784 -0.75 4Q-0.75 8.0378 3.9425 13.2517Q6.237 15.8012 8.5396 17.592L9 17.9501L9.4604 17.592Q11.763 15.8012 14.0575 13.2517Q18.75 8.0378 18.75 4Q18.75 1.8784 17.2568 0.5096Q15.8826 -0.75 14 -0.75Q12.694 -0.75 11.2944 0.1113Q10.2856 0.7321 9 1.9525Q7.7144 0.7321 6.7056 0.1113Q5.306 -0.75 4 -0.75Q2.1174 -0.75 0.7432 0.5096ZM5.0575 12.2483Q0.75 7.4622 0.75 4Q0.75 2.5383 1.7568 1.6154Q2.7008 0.75 4 0.75Q4.8815 0.75 5.9194 1.3887Q6.9819 2.0426 8.4697 3.5303L9 4.0607L9.5303 3.5303Q11.0181 2.0426 12.0806 1.3887Q13.1185 0.75 14 0.75Q15.2992 0.75 16.2432 1.6154Q17.25 2.5383 17.25 4Q17.25 7.4622 12.9425 12.2483Q10.9681 14.4421 9 16.0418Q7.032 14.4421 5.0575 12.2483Z" fill-rule="evenodd"/></svg>