<?xml version="1.0" encoding="utf-8" ?><svg xmlns="http://www.w3.org/2000/svg" xmlns:xlink="http://www.w3.org/1999/xlink" width="24" height="24"><path fill="#8FA89B" transform="matrix(1 0 0 1 5 8)" d="M7.0929 12.2495Q10.4502 12.2171 12.8336 9.8336Q13.0902 9.577 13.3196 9.3092Q13.2311 9.3686 13.1404 9.4264Q11.0619 10.75 8.5 10.75Q8.4514 10.75 8.4029 10.7495Q7.8326 11.5874 7.0929 12.2495ZM9.2263 9.2171Q9.75 7.9143 9.75 6.5Q9.75 3.4969 7.6266 1.3734Q5.5031 -0.75 2.5 -0.75Q1.0572 -0.75 -0.1825 -0.1818L-0.5187 -0.0277L-0.6011 0.3329Q-0.75 0.9841 -0.75 1.5Q-0.75 3.3814 -0.0228 5.1007Q0.6794 6.7609 1.9593 8.0407Q3.2391 9.3206 4.8993 10.0228Q5.7551 10.3848 6.6511 10.5666Q5.8097 11.5246 4.6269 12.1331L2.7188 13.1146L4.8229 13.5354Q5.8957 13.75 7 13.75Q8.9831 13.75 10.7954 12.9835Q12.5452 12.2434 13.8943 10.8943Q15.2434 9.5452 15.9835 7.7954Q16.75 5.9832 16.75 4L15.25 4Q15.25 4.5008 14.7488 5.3779L14.7307 5.4095L14.7158 5.4428Q13.9601 7.126 12.3346 8.1611Q10.9221 9.0607 9.2263 9.2171ZM7.5838 9.2017Q8.25 7.9153 8.25 6.5Q8.25 4.1182 6.5659 2.4341Q4.8818 0.75 2.5 0.75Q1.5864 0.75 0.7891 1.0397Q0.75 1.2944 0.75 1.5Q0.75 4.7101 3.0199 6.9801Q4.9588 8.919 7.5838 9.2017Z" fill-rule="evenodd"/></svg>