<?xml version="1.0" encoding="utf-8" ?><svg xmlns="http://www.w3.org/2000/svg" xmlns:xlink="http://www.w3.org/1999/xlink" width="75" height="14"><rect fill="#1A1A1A" transform="matrix(1 0 0 1 0 10)" width="3" height="4" rx="1" ry="1"/><rect fill="#1A1A1A" transform="matrix(1 0 0 1 5 7)" width="3" height="7" rx="1" ry="1"/><rect fill="#1A1A1A" transform="matrix(1 0 0 1 10 4)" width="3" height="10" rx="1" ry="1"/><rect fill="#1A1A1A" transform="matrix(1 0 0 1 15 0)" width="3" height="14" rx="1" ry="1"/><path fill="#1A1A1A" transform="matrix(1 0 0 1 32 11)" d="M1 0C1.5523 0 2 0.4477 2 1C2 1.5523 1.5523 2 1 2C0.4477 2 0 1.5523 0 1C0 0.4477 0.4477 0 1 0Z"/><path fill="#1A1A1A" transform="matrix(1 0 0 1 29.76 7.5)" d="M3.24 -0.75Q1.0323 -0.75 -0.4918 0.5738Q-0.7351 0.7731 -0.7481 1.0874Q-0.7792 1.4004 -0.5662 1.6318Q-0.3669 1.8751 -0.0526 1.8882Q0.2604 1.9192 0.4918 1.7062Q1.5927 0.75 3.24 0.75Q4.8873 0.75 5.9882 1.7062Q6.2196 1.9192 6.5326 1.8882Q6.8469 1.8751 7.0462 1.6318Q7.2592 1.4004 7.2281 1.0874Q7.2151 0.7731 6.9718 0.5738Q5.4477 -0.75 3.24 -0.75Z" fill-rule="evenodd"/><path fill="#1A1A1A" transform="matrix(1 0 0 1 27.17 3.9975)" d="M5.83 -0.75Q2.1709 -0.75 -0.4836 1.4892Q-0.7297 1.685 -0.7473 1.9991Q-0.7829 2.3116 -0.5733 2.5461Q-0.3775 2.7922 -0.0634 2.8098Q0.2491 2.8454 0.4836 2.6358Q2.7191 0.75 5.83 0.75Q8.9409 0.75 11.1764 2.6358Q11.4109 2.8454 11.7234 2.8098Q12.0375 2.7922 12.2333 2.5461Q12.4429 2.3116 12.4073 1.9991Q12.3897 1.685 12.1436 1.4892Q9.4891 -0.75 5.83 -0.75Z" fill-rule="evenodd"/><path fill="#1A1A1A" transform="matrix(1 0 0 1 24.76 1)" d="M8.24 -0.75Q3.2143 -0.75 -0.3945 1.4821Q-0.6667 1.6398 -0.73 1.9479Q-0.8109 2.2519 -0.6378 2.5145Q-0.4802 2.7867 -0.1721 2.85Q0.1319 2.9309 0.3945 2.7578Q3.6407 0.75 8.24 0.75Q12.8393 0.75 16.0855 2.7578Q16.3481 2.9309 16.6521 2.85Q16.9602 2.7867 17.1179 2.5145Q17.2909 2.2519 17.21 1.9479Q17.1467 1.6398 16.8745 1.4821Q13.2657 -0.75 8.24 -0.75Z" fill-rule="evenodd"/><path fill="#1A1A1A" transform="matrix(1 0 0 1 48 0)" d="M24 11L24 3Q24 1.7574 23.1213 0.8787Q22.2426 0 21 0L3 0Q1.7574 0 0.8787 0.8787Q0 1.7574 0 3L0 11Q0 12.2426 0.8787 13.1213Q1.7574 14 3 14L21 14Q22.2426 14 23.1213 13.1213Q24 12.2426 24 11ZM21 1.2Q22.8 1.2 22.8 3L22.8 11Q22.8 11.7456 22.2728 12.2728Q21.7456 12.8 21 12.8L3 12.8Q1.2 12.8 1.2 11L1.2 3Q1.2 1.2 3 1.2L21 1.2Z" fill-rule="evenodd"/><rect fill="#1A1A1A" transform="matrix(1 0 0 1 50.5 2.5)" width="16" height="9" rx="1" ry="1"/><rect fill="#1A1A1A" transform="matrix(1 0 0 1 73 4)" width="2" height="6" rx="1" ry="1"/></svg>