<?xml version="1.0" encoding="utf-8" ?><svg xmlns="http://www.w3.org/2000/svg" xmlns:xlink="http://www.w3.org/1999/xlink" width="18" height="18"><path fill="#FFF" transform="matrix(1 0 0 1 6 3)" d="M6 3Q6 1.7574 5.1213 0.8787Q4.2426 0 3 0Q1.7574 0 0.8787 0.8787Q0 1.7574 0 3Q0 4.2426 0.8787 5.1213Q1.7574 6 3 6Q4.2426 6 5.1213 5.1213Q6 4.2426 6 3ZM1.35 3Q1.35 1.35 3 1.35Q4.65 1.35 4.65 3Q4.65 4.65 3 4.65Q1.35 4.65 1.35 3Z" fill-rule="evenodd"/><path fill="#FFF" transform="matrix(1 0 0 1 3 10.5)" d="M1.3575 0.7819Q-0.675 2.3063 -0.675 4.5Q-0.6831 4.783 -0.4773 4.9773Q-0.283 5.1831 0 5.175Q0.283 5.1831 0.4773 4.9773Q0.6831 4.783 0.675 4.5Q0.675 2.9812 2.1675 1.8619Q3.75 0.675 6 0.675Q8.25 0.675 9.8325 1.8619Q11.325 2.9813 11.325 4.5Q11.3169 4.783 11.5227 4.9773Q11.717 5.1831 12 5.175Q12.283 5.1831 12.4773 4.9773Q12.6831 4.783 12.675 4.5Q12.675 2.3063 10.6425 0.7819Q8.7 -0.675 6 -0.675Q3.3 -0.675 1.3575 0.7819Z" fill-rule="evenodd"/></svg>