<?xml version="1.0" encoding="utf-8" ?><svg xmlns="http://www.w3.org/2000/svg" xmlns:xlink="http://www.w3.org/1999/xlink" width="36" height="36"><rect fill="#F0F5F2" width="36" height="36" rx="12" ry="12"/><path fill="#8FA89B" transform="matrix(1 0 0 1 16.3333 9.66667)" d="M3.3333 1.6667Q3.3333 0.9763 2.8452 0.4882Q2.357 0 1.6667 0Q0.9763 0 0.4882 0.4882Q0 0.9763 0 1.6667Q0 2.357 0.4882 2.8452Q0.9763 3.3333 1.6667 3.3333Q2.357 3.3333 2.8452 2.8452Q3.3333 2.357 3.3333 1.6667ZM1.25 1.6667Q1.25 1.25 1.6667 1.25Q2.0833 1.25 2.0833 1.6667Q2.0833 2.0833 1.6667 2.0833Q1.25 2.0833 1.25 1.6667Z" fill-rule="evenodd"/><path fill="#8FA89B" transform="matrix(1 0 0 1 13.8333 18)" d="M0.2608 4.7412L0.2404 4.8024Q0.1504 5.0485 0.2743 5.2795Q0.3847 5.5172 0.6357 5.5929Q0.8819 5.6829 1.1129 5.559Q1.3506 5.4486 1.4263 5.1976L3.0929 0.1976Q3.1829 -0.0485 3.059 -0.2795Q2.9486 -0.5172 2.6976 -0.5929Q2.5605 -0.6395 2.4171 -0.6195Q2.2734 -0.6011 2.1533 -0.52L-0.3467 1.1466Q-0.478 1.2328 -0.5511 1.3718Q-0.6261 1.5097 -0.625 1.6667L-0.625 4.1667Q-0.6325 4.4287 -0.442 4.6086Q-0.262 4.7992 0 4.7917Q0.1425 4.7958 0.2608 4.7412ZM0.625 3.6486L1.331 1.5305L0.625 2.0012L0.625 3.6486Z" fill-rule="evenodd"/><path fill="#8FA89B" transform="matrix(1 0 0 1 18 16.3333)" d="M0.7582 2.7126L3.7083 0.5Q3.9225 0.3488 3.9521 0.0884Q3.9966 -0.1699 3.8333 -0.375Q3.6822 -0.5891 3.4217 -0.6187Q3.1634 -0.6632 2.9583 -0.5L-0.375 2Q-0.5477 2.125 -0.6018 2.3312Q-0.6628 2.5355 -0.5803 2.7321L1.0864 6.8988Q1.1767 7.1449 1.4205 7.2411Q1.6583 7.3513 1.8988 7.247Q2.1449 7.1567 2.2411 6.9129Q2.3513 6.675 2.247 6.4345L0.7582 2.7126Z" fill-rule="evenodd"/></svg>