<?xml version="1.0" encoding="utf-8" ?><svg xmlns="http://www.w3.org/2000/svg" xmlns:xlink="http://www.w3.org/1999/xlink" width="36" height="36"><rect fill="#F0F5F2" width="36" height="36" rx="12" ry="12"/><path fill="#8FA89B" transform="matrix(1 0 0 1 12.1667 10.5)" d="M2.4135 3.0667Q-0.625 7.1904 -0.625 10Q-0.625 12.6751 1.2666 14.5667Q3.1582 16.4583 5.8333 16.4583Q8.5085 16.4583 10.4001 14.5667Q12.2917 12.6751 12.2917 10Q12.2917 7.1904 9.2532 3.0667Q7.7669 1.0497 6.2753 -0.442L5.8333 -0.8839L5.3914 -0.442Q3.8998 1.0497 2.4135 3.0667ZM2.1505 13.6829Q0.625 12.1574 0.625 10Q0.625 7.6012 3.4198 3.8083Q4.6285 2.1679 5.8333 0.8961Q7.0382 2.1679 8.2468 3.8083Q11.0417 7.6012 11.0417 10Q11.0417 12.1574 9.5162 13.6829Q7.9907 15.2083 5.8333 15.2083Q3.676 15.2083 2.1505 13.6829Z" fill-rule="evenodd"/><path fill="#8FA89B" transform="matrix(1 0 0 1 16.3333 20.5)" d="M0.8946 0.3979Q0.6736 0.0443 0.5929 -0.1976Q0.5172 -0.4486 0.2795 -0.559Q0.0485 -0.6829 -0.1976 -0.5929Q-0.4486 -0.5172 -0.559 -0.2795Q-0.6829 -0.0485 -0.5929 0.1976Q-0.4652 0.5807 -0.1654 1.0604Q0.4267 2.0079 1.32 2.6034L1.6667 2.8345L2.0134 2.6034Q2.9066 2.0079 3.4987 1.0604Q3.7986 0.5807 3.9263 0.1976Q4.0163 -0.0485 3.8924 -0.2795Q3.7819 -0.5172 3.531 -0.5929Q3.2848 -0.6829 3.0538 -0.559Q2.8161 -0.4486 2.7404 -0.1976Q2.6598 0.0443 2.4388 0.3979Q2.1111 0.9222 1.6667 1.3014Q1.2222 0.9222 0.8946 0.3979Z" fill-rule="evenodd"/></svg>