<?xml version="1.0" encoding="utf-8" ?><svg xmlns="http://www.w3.org/2000/svg" xmlns:xlink="http://www.w3.org/1999/xlink" width="36" height="36"><rect fill="#F0F5F2" width="36" height="36" rx="12" ry="12"/><path fill="#8FA89B" transform="matrix(1 0 0 1 10.5 10.5)" d="M15 7.5Q15 4.3934 12.8033 2.1967Q10.6066 0 7.5 0Q4.3934 0 2.1967 2.1967Q0 4.3934 0 7.5Q0 10.6066 2.1967 12.8033Q4.3934 15 7.5 15Q10.6066 15 12.8033 12.8033Q15 10.6066 15 7.5ZM3.0806 3.0806Q4.9112 1.25 7.5 1.25Q10.0888 1.25 11.9194 3.0806Q13.75 4.9112 13.75 7.5Q13.75 10.0888 11.9194 11.9194Q10.0888 13.75 7.5 13.75Q4.9112 13.75 3.0806 11.9194Q1.25 10.0888 1.25 7.5Q1.25 4.9112 3.0806 3.0806Z" fill-rule="evenodd"/><path fill="#8FA89B" transform="matrix(1 0 0 1 14.6667 14.6667)" d="M6.6667 3.3333Q6.6667 1.9526 5.6904 0.9763Q4.714 0 3.3333 0Q1.9526 0 0.9763 0.9763Q0 1.9526 0 3.3333Q0 4.714 0.9763 5.6904Q1.9526 6.6667 3.3333 6.6667Q4.714 6.6667 5.6904 5.6904Q6.6667 4.714 6.6667 3.3333ZM1.25 3.3333Q1.25 1.25 3.3333 1.25Q4.1963 1.25 4.8065 1.8602Q5.4167 2.4704 5.4167 3.3333Q5.4167 5.4167 3.3333 5.4167Q1.25 5.4167 1.25 3.3333Z" fill-rule="evenodd"/><path fill="#8FA89B" transform="matrix(1 0 0 1 10.5 10.5)" d="M8.125 4.1667L8.125 0Q8.1325 -0.262 7.942 -0.442Q7.762 -0.6325 7.5 -0.625Q7.238 -0.6325 7.058 -0.442Q6.8675 -0.262 6.875 0L6.875 4.1667Q6.8675 4.4287 7.058 4.6086Q7.238 4.7992 7.5 4.7917Q7.762 4.7992 7.942 4.6086Q8.1325 4.4287 8.125 4.1667ZM4.1667 6.875L0 6.875Q-0.262 6.8675 -0.442 7.058Q-0.6325 7.238 -0.625 7.5Q-0.6325 7.762 -0.442 7.942Q-0.262 8.1325 0 8.125L4.1667 8.125Q4.4287 8.1325 4.6086 7.942Q4.7992 7.762 4.7917 7.5Q4.7992 7.238 4.6086 7.058Q4.4287 6.8675 4.1667 6.875ZM15 6.875L10.8333 6.875Q10.5713 6.8675 10.3914 7.058Q10.2008 7.238 10.2083 7.5Q10.2008 7.762 10.3914 7.942Q10.5713 8.1325 10.8333 8.125L15 8.125Q15.262 8.1325 15.442 7.942Q15.6325 7.762 15.625 7.5Q15.6325 7.238 15.442 7.058Q15.262 6.8675 15 6.875ZM8.125 15L8.125 10.8333Q8.1325 10.5713 7.942 10.3914Q7.762 10.2008 7.5 10.2083Q7.238 10.2008 7.058 10.3914Q6.8675 10.5713 6.875 10.8333L6.875 15Q6.8675 15.262 7.058 15.442Q7.238 15.6325 7.5 15.625Q7.762 15.6325 7.942 15.442Q8.1325 15.262 8.125 15Z" fill-rule="evenodd"/></svg>