<?xml version="1.0" encoding="utf-8" ?><svg xmlns="http://www.w3.org/2000/svg" xmlns:xlink="http://www.w3.org/1999/xlink" width="18" height="18"><path fill="#FFF" transform="matrix(1 0 0 1 2.25 2.25)" d="M5.25 6L5.25 0L0 0L0 6L5.25 6ZM1.35 4.65L1.35 1.35L3.9 1.35L3.9 4.65L1.35 4.65Z" fill-rule="evenodd"/><path fill="#FFF" transform="matrix(1 0 0 1 10.5 2.25)" d="M5.25 6L5.25 0L0 0L0 6L5.25 6ZM1.35 4.65L1.35 1.35L3.9 1.35L3.9 4.65L1.35 4.65Z" fill-rule="evenodd"/><path fill="#FFF" transform="matrix(1 0 0 1 2.25 10.5)" d="M5.25 5.25L5.25 0L0 0L0 5.25L5.25 5.25ZM1.35 3.9L1.35 1.35L3.9 1.35L3.9 3.9L1.35 3.9Z" fill-rule="evenodd"/><path fill="#FFF" transform="matrix(1 0 0 1 10.5 10.5)" d="M5.25 5.25L5.25 0L0 0L0 5.25L5.25 5.25ZM1.35 3.9L1.35 1.35L3.9 1.35L3.9 3.9L1.35 3.9Z" fill-rule="evenodd"/></svg>