<?xml version="1.0" encoding="utf-8" ?><svg xmlns="http://www.w3.org/2000/svg" xmlns:xlink="http://www.w3.org/1999/xlink" width="18" height="18"><path fill="#757575" transform="matrix(1 0 0 1 2.25 2.25)" d="M13.5 6.75Q13.5 3.9541 11.523 1.977Q9.5459 0 6.75 0Q3.9541 0 1.977 1.977Q0 3.9541 0 6.75Q0 9.5459 1.977 11.523Q3.9541 13.5 6.75 13.5Q9.5459 13.5 11.523 11.523Q13.5 9.5459 13.5 6.75ZM2.9316 2.9316Q4.5132 1.35 6.75 1.35Q8.9868 1.35 10.5684 2.9316Q12.15 4.5132 12.15 6.75Q12.15 8.9868 10.5684 10.5684Q8.9868 12.15 6.75 12.15Q4.5132 12.15 2.9316 10.5684Q1.35 8.9868 1.35 6.75Q1.35 4.5132 2.9316 2.9316Z" fill-rule="evenodd"/><path fill="#757575" transform="matrix(1 0 0 1 9 4.5)" d="M0.675 4.0828L0.675 0Q0.6831 -0.283 0.4773 -0.4773Q0.283 -0.6831 0 -0.675Q-0.283 -0.6831 -0.4773 -0.4773Q-0.6831 -0.283 -0.675 0L-0.675 4.9172L2.6981 6.6037Q2.9476 6.7376 3.2134 6.6404Q3.4845 6.5586 3.6037 6.3019Q3.7376 6.0524 3.6404 5.7866Q3.5586 5.5155 3.3019 5.3963L0.675 4.0828Z" fill-rule="evenodd"/></svg>