<?xml version="1.0" encoding="utf-8" ?><svg xmlns="http://www.w3.org/2000/svg" xmlns:xlink="http://www.w3.org/1999/xlink" width="18" height="18"><path fill="#757575" transform="matrix(1 0 0 1 10.5 5.25)" d="M1.7176 2.1045Q2.2567 1.116 2.79 0.405Q2.9663 0.1835 2.9182 -0.0955Q2.8863 -0.3767 2.655 -0.54Q2.4335 -0.7163 2.1545 -0.6682Q1.8733 -0.6363 1.71 -0.405Q1.1183 0.384 0.5324 1.458Q-0.675 3.6716 -0.675 5.25Q-0.675 6.7722 0.4014 7.8486Q1.4778 8.925 3 8.925Q4.5222 8.925 5.5986 7.8486Q6.675 6.7722 6.675 5.25Q6.675 3.6716 5.4676 1.458Q4.8817 0.384 4.29 -0.405Q4.1267 -0.6363 3.8455 -0.6682Q3.5665 -0.7163 3.345 -0.54Q3.1137 -0.3767 3.0818 -0.0955Q3.0337 0.1835 3.21 0.405Q3.7433 1.116 4.2824 2.1045Q5.325 4.0159 5.325 5.25Q5.325 6.213 4.644 6.894Q3.963 7.575 3 7.575Q2.037 7.575 1.356 6.894Q0.675 6.213 0.675 5.25Q0.675 4.0159 1.7176 2.1045Z" fill-rule="evenodd"/><path fill="#757575" transform="matrix(1 0 0 1 3 5.25)" d="M1.7176 2.1045Q2.2567 1.116 2.79 0.405Q2.9663 0.1835 2.9182 -0.0955Q2.8863 -0.3767 2.655 -0.54Q2.4335 -0.7163 2.1545 -0.6682Q1.8733 -0.6363 1.71 -0.405Q1.1183 0.384 0.5324 1.458Q-0.675 3.6716 -0.675 5.25Q-0.675 6.7722 0.4014 7.8486Q1.4778 8.925 3 8.925Q4.5222 8.925 5.5986 7.8486Q6.675 6.7722 6.675 5.25Q6.675 3.6716 5.4676 1.458Q4.8817 0.384 4.29 -0.405Q4.1267 -0.6363 3.8455 -0.6682Q3.5665 -0.7163 3.345 -0.54Q3.1137 -0.3767 3.0818 -0.0955Q3.0337 0.1835 3.21 0.405Q3.7433 1.116 4.2824 2.1045Q5.325 4.0159 5.325 5.25Q5.325 6.213 4.644 6.894Q3.963 7.575 3 7.575Q2.037 7.575 1.356 6.894Q0.675 6.213 0.675 5.25Q0.675 4.0159 1.7176 2.1045Z" fill-rule="evenodd"/><path fill="#757575" transform="matrix(1 0 0 1 9 7.5)" d="M-0.675 0L-0.675 9Q-0.6831 9.283 -0.4773 9.4773Q-0.283 9.6831 0 9.675Q0.283 9.6831 0.4773 9.4773Q0.6831 9.283 0.675 9L0.675 0Q0.6831 -0.283 0.4773 -0.4773Q0.283 -0.6831 0 -0.675Q-0.283 -0.6831 -0.4773 -0.4773Q-0.6831 -0.283 -0.675 0Z" fill-rule="evenodd"/></svg>